<?xml version="1.0" encoding="UTF-8" standalone="no"?>
<!-- Created with Inkscape (http://www.inkscape.org/) -->

<svg
   width="5.9448729mm"
   height="6.0984411mm"
   viewBox="0 0 5.9448729 6.0984411"
   version="1.1"
   id="svg1"
   xml:space="preserve"
   inkscape:export-filename="bitmap.svg"
   inkscape:export-xdpi="96"
   inkscape:export-ydpi="96"
   xmlns:inkscape="http://www.inkscape.org/namespaces/inkscape"
   xmlns:sodipodi="http://sodipodi.sourceforge.net/DTD/sodipodi-0.dtd"
   xmlns="http://www.w3.org/2000/svg"
   xmlns:svg="http://www.w3.org/2000/svg"><sodipodi:namedview
     id="namedview1"
     pagecolor="#ffffff"
     bordercolor="#000000"
     borderopacity="0.25"
     inkscape:showpageshadow="2"
     inkscape:pageopacity="0.0"
     inkscape:pagecheckerboard="0"
     inkscape:deskcolor="#d1d1d1"
     inkscape:document-units="mm" /><defs
     id="defs1"><clipPath
       clipPathUnits="userSpaceOnUse"
       id="clipPath220"><path
         id="path221"
         style="fill:#ff0000;fill-opacity:1;fill-rule:nonzero;stroke:none;stroke-width:0.865978"
         d="m 65.596576,98.284434 v 4.644516 h 4.192542 v -4.644516 z m 3.547702,3.060796 -4.5e-4,0.001 -4.49e-4,4.4e-4 -4.5e-4,8.9e-4 c 0.01162,-4.4e-4 0.02354,0.01 0.02897,0.0295 0.01214,0.002 0.02409,0.0148 0.02678,0.0382 0.0011,0.009 0.0013,0.0188 0.0022,0.0282 0.0016,0.017 0.0033,0.0338 0.0048,0.0507 0.0016,0.0141 0.0027,0.0284 0.004,0.0425 0.0011,0.0108 0.0018,0.0216 0.0022,0.0325 4.49e-4,0.008 4.49e-4,0.0163 8.99e-4,0.0247 4.49e-4,0.008 0.0011,0.015 0.0018,0.0225 6.75e-4,0.008 0.0011,0.0163 0.0018,0.0247 4.5e-4,0.008 8.99e-4,0.0159 0.0018,0.0243 4.5e-4,0.008 0.0016,0.0165 0.0022,0.0238 6.74e-4,0.007 0.0016,0.0146 0.0026,0.0221 8.99e-4,0.006 0.0016,0.011 0.0022,0.0169 0.0011,0.009 2.24e-4,0.0174 -0.0018,0.0238 4.49e-4,0.003 8.99e-4,0.007 0.0013,0.0104 0.0013,0.0127 0.0026,0.0255 0.0044,0.0382 0.0018,0.0111 0.0039,0.0222 0.0057,0.0334 0.0041,-2.2e-4 0.0075,-4.4e-4 0.01317,-8.9e-4 8.99e-4,-1e-4 0.0082,0.0262 0.0088,0.0278 8.99e-4,0.003 0.002,0.007 0.0031,0.0104 0.0031,0.0113 0.003,0.0207 8.99e-4,0.0282 0.0033,0.0194 0.0064,0.0388 0.01009,0.0581 0.006,0.031 0.0129,0.0618 0.02063,0.0923 0.0086,0.0355 0.01584,0.0712 0.02502,0.10665 0.009,0.0332 0.01825,0.0661 0.03029,0.0984 0.0011,0.002 0.0023,0.004 0.0035,0.006 0.0037,0.007 0.0061,0.0123 0.0079,0.0169 0.02365,0.0201 0.04404,0.0434 0.06409,0.0668 0.0018,0.002 0.0036,0.004 0.0053,0.006 2.25e-4,-2.2e-4 6.74e-4,-8.8e-4 8.99e-4,-8.8e-4 0.0065,-0.007 0.01461,-0.0119 0.02196,-0.0178 0.0094,-0.003 0.01843,-0.009 0.02809,-0.007 0.01241,0.002 0.02445,0.008 0.0338,0.0156 0.0078,0.007 0.01162,0.0177 0.01535,0.0273 8.99e-4,0.002 0.0016,0.005 0.0022,0.008 0.0062,-6.7e-4 0.01227,-8.9e-4 0.01843,-8.9e-4 0.0031,0 0.0056,0.004 0.0079,0.006 0.0058,0.006 0.0095,0.0124 0.01405,0.0191 0.0011,0.003 0.0032,0.004 0.0044,0.007 0.0047,0.01 0.0065,0.0203 0.0088,0.0308 0.0032,0.0145 0.0063,0.029 0.0079,0.0438 0.0011,0.0121 0.0023,0.0243 0.0022,0.0364 8.5e-5,0.009 8.99e-4,0.0173 0.0013,0.026 4.5e-4,0.008 6.75e-4,0.0164 0.0022,0.0247 0.0011,0.006 0.0025,0.012 0.0044,0.0178 0.01182,0.005 0.02396,0.009 0.03643,0.0121 v -8.9e-4 c 0.05412,0.0127 0.04335,0.0661 -0.01097,0.0542 -0.01411,-0.003 -0.02778,-0.008 -0.04126,-0.013 h -4.49e-4 c -0.0071,-1e-5 -0.01508,-0.003 -0.02238,-0.01 -0.0057,-0.002 -0.01151,-0.005 -0.01713,-0.007 -0.0052,-0.002 -0.01018,-0.005 -0.01535,-0.007 -1.64e-4,2.3e-4 -1.59e-4,6.7e-4 -4.49e-4,8.9e-4 -0.0029,0.005 -0.0065,0.009 -0.01009,0.0134 -0.0074,0.009 -0.01692,0.016 -0.0259,0.0225 -0.0081,0.006 -0.01504,0.0128 -0.02196,0.0195 -0.0046,0.005 -0.0095,0.008 -0.01405,0.0104 0.0053,0.0272 -0.0074,0.0485 -0.02809,0.0555 0.0052,0.0323 -0.02538,0.0615 -0.0856,0.0464 -0.0032,-8.9e-4 -0.0057,-0.002 -0.0088,-0.003 -0.0024,0.0255 -0.02789,0.0502 -0.07857,0.0503 -0.02014,0 -0.03994,-0.002 -0.0597,-0.006 -0.02553,-0.005 -0.05097,-0.0104 -0.07594,-0.0169 -0.02662,-0.007 -0.04868,-0.0231 -0.06892,-0.0412 -0.0093,-0.0104 -0.02079,-0.0187 -0.03161,-0.0264 -0.01245,-0.0115 -0.02641,-0.0216 -0.03951,-0.0325 -0.01573,-0.0123 -0.03029,-0.0258 -0.04434,-0.0399 -0.01544,-0.0154 -0.02919,-0.0323 -0.04214,-0.0498 -6.74e-4,-8.9e-4 -0.0016,-0.003 -0.0022,-0.004 -0.0024,-0.002 -0.0047,-0.004 -0.007,-0.007 -0.01313,-0.012 -0.02584,-0.0245 -0.03863,-0.0369 -0.0086,-0.008 -0.01672,-0.0167 -0.02546,-0.0243 -0.0071,-0.006 -0.01432,-0.0127 -0.02238,-0.0178 -0.0069,-0.004 -0.01387,-0.01 -0.02151,-0.013 -0.01027,-0.004 -0.02034,-0.009 -0.03073,-0.013 -0.01432,-0.006 -0.02856,-0.0119 -0.04258,-0.0178 -0.01668,-0.007 -0.03345,-0.0146 -0.05004,-0.0221 -0.0167,-0.007 -0.03328,-0.0127 -0.05092,-0.0169 -0.0236,-0.006 -0.04745,-0.0115 -0.07111,-0.0173 -0.01989,-0.004 -0.04006,-0.009 -0.06014,-0.0121 -0.01976,-0.004 -0.03932,-0.008 -0.05926,-0.0113 -0.02104,-0.003 -0.04209,-0.006 -0.06321,-0.009 -0.01852,-0.003 -0.03725,-0.005 -0.05575,-0.008 -0.01353,-0.002 -0.02694,-0.003 -0.04038,-0.006 -0.01301,-0.003 -0.02604,-0.005 -0.03907,-0.008 -0.0116,-0.003 -0.0234,-0.004 -0.03512,-0.006 -0.01299,-0.002 -0.026,-0.004 -0.03907,-0.004 -0.01445,-8.9e-4 -0.02858,-0.003 -0.04302,-0.004 -0.01063,-0.002 -0.02137,-0.002 -0.03204,-0.003 -0.07347,-0.006 -0.07054,-0.0744 -0.0053,-0.078 0.0044,-2.2e-4 0.0091,8e-5 0.01405,4.4e-4 0.01056,8.9e-4 0.02106,0.001 0.0316,0.002 0.01393,0.002 0.02775,0.003 0.0417,0.004 0.0138,8.9e-4 0.02754,0.003 0.04126,0.004 0.01358,0.002 0.02694,0.004 0.04039,0.007 0.0041,8.9e-4 0.0082,0.002 0.01229,0.003 8.99e-4,-0.0275 -0.004,-0.0289 0,-0.026 0.0018,0.001 0.0056,0.003 0.01229,0.003 6.74e-4,2e-5 0.0013,0 0.0022,0 l -4.5e-4,-4.5e-4 c 0.01524,0 0.02754,0.003 0.03687,0.008 0.0029,4.5e-4 0.0059,6.7e-4 0.0088,0.002 0.02254,0.004 0.04496,0.007 0.0676,0.0104 0.01596,0.003 0.03189,0.006 0.04785,0.009 0.01468,0.002 0.02938,0.005 0.0439,0.009 0.01477,0.003 0.02947,0.005 0.04434,0.007 0.01272,0.002 0.02546,0.004 0.03819,0.005 0.0023,2.2e-4 0.0047,6.6e-4 0.007,8.9e-4 0.0018,-4.5e-4 0.0028,-6.7e-4 0.0048,-8.9e-4 0.002,-1.6e-4 0.0034,-1.4e-4 0.0057,0 0.0052,0 0.01065,4.4e-4 0.0158,0.002 -0.0013,-0.004 -6.74e-4,-0.008 0.0022,-0.0117 -0.002,-0.009 0.0034,-0.0177 0.01492,-0.0191 0.0049,-4.5e-4 0.0105,-6.7e-4 0.01713,0.003 0.0091,0.003 0.01778,0.006 0.02678,0.01 0.0016,8.9e-4 0.0039,6.7e-4 0.0057,0.002 8.99e-4,-0.006 0.0069,-0.0112 0.01931,-0.0104 0.0059,8.9e-4 0.0122,0.002 0.018,0.003 2.7e-5,-4.5e-4 -1.6e-5,-6.7e-4 0,-0.002 -0.02809,-0.0474 -0.0083,-0.0863 0.02634,-0.0889 0.02016,-0.002 0.04478,0.01 0.0676,0.0369 0.0094,0.0113 0.0043,0.005 0.01492,0.0186 8.99e-4,8.9e-4 0.0013,0.002 0.0022,0.003 0.0016,-0.002 0.0032,-0.005 0.0044,-0.007 0.0013,-1e-4 0.0031,-2e-5 0.0044,-4.5e-4 0.0013,-1.4e-4 0.003,-9e-5 0.0044,0 0.0075,0.001 0.02043,0.004 0.02722,0.005 0.01551,0.003 0.03085,0.007 0.04609,0.0117 0.0013,8.9e-4 0.002,-4.4e-4 0.0035,0.002 0.0048,-0.004 0.0097,-0.008 0.0145,-0.0104 -0.0028,-0.006 -0.0055,-0.0128 -0.0031,-0.0182 0.0094,-0.0222 0.02888,-0.0386 0.04302,-0.0581 0.01324,8.9e-4 0.02597,-0.001 0.03907,0.003 -0.006,-0.0123 -0.01178,-0.0244 -0.01668,-0.0373 -0.02238,-0.059 0.0033,-0.0967 0.03599,-0.0967 0.0024,-2e-5 0.0061,6.7e-4 0.0088,0.002 -8.99e-4,-0.006 -0.0018,-0.011 -0.0026,-0.0165 -0.0046,-0.0375 0.0058,-0.0631 0.02196,-0.0763 -0.0013,-0.008 -0.002,-0.0165 -0.0031,-0.0247 -0.0031,-0.0288 -0.0052,-0.0574 -0.0044,-0.0863 v -4.4e-4 c 0.0016,-0.0531 0.02977,-0.0798 0.05663,-0.0798 v 4.5e-4 4.4e-4 8.9e-4 c 0.02153,0 0.04121,0.0178 0.04785,0.052 0.0099,-0.014 0.02317,-0.0212 0.03643,-0.0221 0.0036,-2.2e-4 0.007,-8e-5 0.01054,0.002 8.99e-4,-10e-4 0.0023,-0.003 0.0035,-0.004 -4.49e-4,-0.0127 -0.0013,-0.0254 -0.0018,-0.0382 -6.74e-4,-0.014 -0.0018,-0.0278 -0.0035,-0.0416 -0.0018,-0.0165 -0.0032,-0.0332 -0.0048,-0.0499 -2.23e-4,-0.002 -1.67e-4,-0.005 -4.5e-4,-0.007 -4.49e-4,-0.002 -8.99e-4,-0.005 -0.0013,-0.007 -0.0025,-0.0143 -0.0057,-0.0285 -0.0075,-0.0429 -0.0024,-0.0185 -0.0045,-0.0373 -0.0057,-0.0559 -8.99e-4,-0.018 -0.0018,-0.0356 -0.0026,-0.0537 -0.0011,-0.0185 -0.0024,-0.0375 -0.0048,-0.0559 -0.0025,-0.0128 -0.0057,-0.0251 -0.0092,-0.0377 -0.0031,-0.0113 -0.0061,-0.023 -0.0079,-0.0347 h 4.49e-4 c -0.0041,-0.0271 0.0076,-0.043 0.02151,-0.0451 8.99e-4,-1.3e-4 0.0018,-4.5e-4 0.0026,-4.5e-4 z m 0.274354,1.26246 c -0.0016,4.4e-4 -0.003,6.7e-4 -0.0044,8.9e-4 -0.0011,0 -4.5e-4,0.004 4.49e-4,0.003 0.0016,-8.8e-4 0.0027,-0.002 0.004,-0.004 z" /></clipPath><clipPath
       clipPathUnits="userSpaceOnUse"
       id="clipPath227"><path
         id="path228"
         style="fill:#ff0000;fill-opacity:1;fill-rule:nonzero;stroke:none;stroke-width:0.353473"
         d="m 68.305859,101.60993 v 1.84846 h 2.347139 v -1.84846 z m 0.215092,0.74443 c 0.007,-1.7e-4 0.01364,1.5e-4 0.02063,7e-4 0.01313,0.001 0.02605,0.003 0.03907,0.005 0.016,0.002 0.03242,0.006 0.04829,0.009 0.01357,0.003 0.02722,0.006 0.04082,0.009 0.01326,0.003 0.02599,0.006 0.03907,0.0102 0.01378,0.004 0.02729,0.008 0.04082,0.013 0.01169,0.004 0.02355,0.008 0.03512,0.0123 0.01286,0.005 0.02535,0.011 0.03775,0.017 0.0092,0.005 0.0189,0.009 0.02809,0.014 0.0058,0.003 0.01144,0.006 0.01713,0.009 0.0024,0.002 0.0045,0.003 0.007,0.004 0.01645,0.008 0.01566,0.0224 0.0057,0.0262 0.0046,0.003 0.0093,0.007 0.01362,0.0102 0.0048,0.004 0.0086,0.008 0.01317,0.0119 8.99e-4,8.8e-4 0.0013,0.002 0.0022,0.002 -0.01362,1.8e-4 0.01155,0.0379 -0.0083,0.0242 -0.004,-0.003 -0.0077,-0.007 -0.01142,-0.01 -0.0042,-0.004 -0.0083,-0.007 -0.01272,-0.0112 -0.005,-0.004 -0.01007,-0.007 -0.01535,-0.0116 -0.0045,-0.004 -0.0093,-0.006 -0.01405,-0.009 -0.0065,-0.003 -0.01357,-0.007 -0.02018,-0.0102 -0.0048,-0.002 -0.0094,-0.005 -0.01405,-0.007 -0.0042,-0.002 -0.0083,-0.005 -0.01229,-0.007 -0.0035,-0.002 -0.0068,-0.003 -0.01054,-0.005 -0.0063,-0.002 -0.01256,-0.005 -0.01888,-0.007 -0.0061,-0.003 -0.01268,-0.005 -0.01888,-0.007 -0.0074,-0.002 -0.01445,-0.005 -0.02196,-0.007 -0.0107,-0.003 -0.02164,-0.005 -0.03248,-0.008 -0.0125,-0.003 -0.02519,-0.006 -0.03775,-0.009 -0.0099,-0.002 -0.02016,-0.004 -0.02985,-0.007 -0.0071,-0.001 -0.01396,-0.003 -0.02106,-0.005 -0.0076,-0.002 -0.0151,-0.003 -0.02283,-0.005 -0.0075,-10e-4 -0.0149,-0.003 -0.02238,-0.004 -0.0063,-0.002 -0.01256,-0.003 -0.01888,-0.004 -0.0064,-0.001 -0.01247,-0.003 -0.01888,-0.004 -0.0062,-10e-4 -0.01308,-0.002 -0.01931,-0.003 -0.0071,-10e-4 -0.01389,-0.002 -0.02106,-0.003 -0.0058,-10e-4 -0.01176,-10e-4 -0.01755,-0.002 -0.0039,-1.7e-4 -0.008,-8.7e-4 -0.01184,-0.001 -0.0028,-1.7e-4 -0.0055,-3.5e-4 -0.0083,-7e-4 -0.02479,-0.003 -0.02365,-0.0268 -0.0018,-0.0273 0.0016,-2e-5 0.0031,3.5e-4 0.0048,7e-4 0.0024,1.8e-4 0.0046,5.3e-4 0.007,7e-4 0.0043,0 0.0089,3.5e-4 0.01317,0.001 0.0062,0 0.01225,5.2e-4 0.01843,0.002 0.0039,0.001 0.0079,0.001 0.01184,0.002 0.0024,-0.005 0.0082,-0.009 0.01843,-0.009 z m 0.389799,0.15407 h 4.49e-4 c 0.0011,1.1e-4 0.002,5.2e-4 0.0035,10e-4 v 0.003 c -4.5e-4,-5.3e-4 -0.0018,-8.7e-4 -0.0022,-0.002 -4.49e-4,-5.2e-4 -0.0013,-0.001 -0.0018,-0.002 z m -0.397263,0.0147 c 0.0081,-2e-5 0.01602,7e-4 0.02414,0.002 0.0096,10e-4 0.01915,0.004 0.02853,0.006 0.02436,0.007 0.04713,0.0169 0.06804,0.029 0.0022,0.001 0.0046,0.003 0.007,0.004 l 4.5e-4,3.5e-4 c 6.74e-4,1.6e-4 0.0016,1.7e-4 0.0022,3.5e-4 0.01169,0.002 0.02266,0.007 0.03292,0.0119 0.0075,0.004 0.01425,0.008 0.02106,0.0126 0.01198,7e-4 0.02351,0.002 0.0338,0.006 0.01104,0.004 0.01899,0.0125 0.02853,0.0184 0.0027,0.0114 0.0102,0.0229 0.0083,0.0344 -8.99e-4,0.006 -0.0051,0.0115 -0.0097,0.0167 0.0036,0.009 0.0061,0.0175 0.0066,0.0297 4.49e-4,0.008 8.99e-4,0.0168 -0.0026,0.0245 -0.0045,0.01 -0.01014,0.02 -0.02063,0.0266 -0.03336,0.0204 -0.05258,0.0132 -0.08911,0.01 -0.01229,-0.003 -0.02489,-0.006 -0.03687,-0.01 -0.02377,-0.008 -0.04836,-0.0188 -0.06892,-0.0327 -0.0046,0.002 -0.0091,0.004 -0.01362,0.006 -0.01814,0.004 -0.03968,0.0112 -0.05882,0.003 -0.03335,-0.0135 -0.04398,-0.0322 -0.02722,-0.061 0.0028,-0.005 0.0075,-0.009 0.01272,-0.0133 -0.02989,-0.0163 -0.03315,-0.0184 -0.01625,-0.029 v -3.5e-4 c -0.0016,-0.002 0.004,-0.003 0.0075,-0.004 h 4.49e-4 c 4.5e-4,-1.8e-4 4.5e-4,-3.5e-4 8.99e-4,-7e-4 0.0013,-8.7e-4 0.0016,-0.001 0.0026,-0.002 8.99e-4,-5.2e-4 0.0018,-8.7e-4 0.0026,-0.001 0.0048,-0.003 0.0077,-0.005 0.01535,-0.009 0.0043,-0.002 0.0091,-0.005 0.01405,-0.007 7.6e-5,-1.7e-4 -7.7e-5,-5.2e-4 0,-7e-4 -0.04937,0.0157 -0.07831,-0.005 -0.03819,-0.046 0.0089,-0.009 0.02122,-0.0158 0.03512,-0.0198 0.0067,-0.002 0.01351,-0.004 0.02063,-0.005 0.0027,-1.6e-4 0.0056,-3.4e-4 0.0083,-3.4e-4 z" /></clipPath></defs><g
     inkscape:label="Layer 1"
     inkscape:groupmode="layer"
     id="layer1"
     transform="translate(-65.545351,-97.349614)"><circle
       cx="67.658752"
       cy="101.29628"
       r="1.3229166"
       fill="none"
       stroke-width="0.529167"
       stroke="#8eef97"
       id="circle1"
       style="display:none;stroke-width:0.529;stroke-dasharray:none" /><path
       style="display:inline;fill:none;fill-rule:evenodd;stroke:#8eef97;stroke-width:0.615409;stroke-linecap:round;stroke-linejoin:round;stroke-miterlimit:10;stroke-dasharray:none;stroke-opacity:1"
       d="m 69.524299,100.55016 c 0,2.15505 -0.0044,2.11426 -1.865547,2.11426 -1.81589,0 -1.797718,-0.004 -1.797718,-2.11426 0,-1.951547 0.0044,-2.001203 1.775108,-2.001203 1.77067,0 1.888157,0.0044 1.888157,2.001203 z"
       id="path3"
       clip-path="url(#clipPath220)"
       inkscape:export-filename="TextBoxIcon.svg"
       inkscape:export-xdpi="96"
       inkscape:export-ydpi="96"
       transform="matrix(1.1772373,0,0,1.1919648,-11.677382,-19.801972)" /><path
       style="display:inline;fill:none;fill-rule:evenodd;stroke:#8eef97;stroke-width:0.545675;stroke-linecap:round;stroke-linejoin:round;stroke-miterlimit:10;stroke-dasharray:none;stroke-opacity:1"
       d="m 69.493416,101.91327 c 0,0 -0.08227,0.66473 0.880236,0.9988 -1.338774,0.39395 -1.802613,-0.0563 -1.802613,-0.0563"
       id="path2"
       clip-path="url(#clipPath227)"
       transform="matrix(1.1772373,0,0,1.5160826,-11.677382,-53.233502)"
       sodipodi:nodetypes="ccc" /><path
       style="display:none;fill:none;fill-rule:evenodd;stroke:#8eef97;stroke-width:0.329;stroke-linecap:square;stroke-linejoin:round;stroke-miterlimit:10;stroke-dasharray:none;stroke-opacity:1"
       d="m 66.581827,99.482338 h 2.166242"
       id="path106" /><path
       style="display:none;fill:none;fill-rule:evenodd;stroke:#8eef97;stroke-width:0.329;stroke-linecap:square;stroke-linejoin:round;stroke-miterlimit:10;stroke-dasharray:none;stroke-opacity:1"
       d="m 66.642456,100.15722 h 0.200613"
       id="path106-4" /><path
       style="display:none;fill:none;fill-rule:evenodd;stroke:#8eef97;stroke-width:0.329;stroke-linecap:square;stroke-linejoin:round;stroke-miterlimit:10;stroke-dasharray:none;stroke-opacity:1"
       d="m 68.49283,101.54097 h 0.200613"
       id="path106-4-5" /><path
       style="display:none;fill:none;fill-rule:evenodd;stroke:#8eef97;stroke-width:0.329;stroke-linecap:square;stroke-linejoin:round;stroke-miterlimit:10;stroke-dasharray:none;stroke-opacity:1"
       d="m 67.638955,100.14591 h 1.090347"
       id="path106-6" /><path
       style="display:none;fill:none;fill-rule:evenodd;stroke:#8eef97;stroke-width:0.329;stroke-linecap:square;stroke-linejoin:round;stroke-miterlimit:10;stroke-dasharray:none;stroke-opacity:1"
       d="m 66.604928,101.5251 h 1.090347"
       id="path106-6-3" /><path
       style="display:none;fill:none;fill-rule:evenodd;stroke:#8eef97;stroke-width:0.329;stroke-linecap:square;stroke-linejoin:round;stroke-miterlimit:10;stroke-dasharray:none;stroke-opacity:1"
       d="m 66.641003,100.85596 h 2.166242"
       id="path106-3" /></g></svg>
